<svg id="visual" viewBox="0 0 960 540" width="960" height="540" xmlns="http://www.w3.org/2000/svg" xmlns:xlink="http://www.w3.org/1999/xlink" version="1.1"><path d="M0 168L87 168L87 141L175 141L175 201L262 201L262 87L349 87L349 163L436 163L436 71L524 71L524 212L611 212L611 82L698 82L698 163L785 163L785 239L873 239L873 141L960 141L960 114L960 0L960 0L873 0L873 0L785 0L785 0L698 0L698 0L611 0L611 0L524 0L524 0L436 0L436 0L349 0L349 0L262 0L262 0L175 0L175 0L87 0L87 0L0 0Z" fill="#fcaf3c"></path><path d="M0 368L87 368L87 260L175 260L175 309L262 309L262 287L349 287L349 379L436 379L436 266L524 266L524 314L611 314L611 266L698 266L698 255L785 255L785 325L873 325L873 266L960 266L960 255L960 112L960 139L873 139L873 237L785 237L785 161L698 161L698 80L611 80L611 210L524 210L524 69L436 69L436 161L349 161L349 85L262 85L262 199L175 199L175 139L87 139L87 166L0 166Z" fill="#c38a3a"></path><path d="M0 455L87 455L87 406L175 406L175 422L262 422L262 395L349 395L349 438L436 438L436 347L524 347L524 384L611 384L611 406L698 406L698 384L785 384L785 368L873 368L873 401L960 401L960 363L960 253L960 264L873 264L873 323L785 323L785 253L698 253L698 264L611 264L611 312L524 312L524 264L436 264L436 377L349 377L349 285L262 285L262 307L175 307L175 258L87 258L87 366L0 366Z" fill="#8c6635"></path><path d="M0 509L87 509L87 482L175 482L175 492L262 492L262 455L349 455L349 503L436 503L436 455L524 455L524 471L611 471L611 460L698 460L698 465L785 465L785 465L873 465L873 449L960 449L960 455L960 361L960 399L873 399L873 366L785 366L785 382L698 382L698 404L611 404L611 382L524 382L524 345L436 345L436 436L349 436L349 393L262 393L262 420L175 420L175 404L87 404L87 453L0 453Z" fill="#58452e"></path><path d="M0 541L87 541L87 541L175 541L175 541L262 541L262 541L349 541L349 541L436 541L436 541L524 541L524 541L611 541L611 541L698 541L698 541L785 541L785 541L873 541L873 541L960 541L960 541L960 453L960 447L873 447L873 463L785 463L785 463L698 463L698 458L611 458L611 469L524 469L524 453L436 453L436 501L349 501L349 453L262 453L262 490L175 490L175 480L87 480L87 507L0 507Z" fill="#212529"></path></svg>