<svg id="visual" viewBox="0 0 960 200" width="960" height="200" xmlns="http://www.w3.org/2000/svg" xmlns:xlink="http://www.w3.org/1999/xlink" version="1.1"><path d="M0 71L60 71L60 57L120 57L120 47L180 47L180 81L240 81L240 111L300 111L300 77L360 77L360 55L420 55L420 51L480 51L480 65L540 65L540 39L600 39L600 63L660 63L660 65L720 65L720 25L780 25L780 63L840 63L840 83L900 83L900 99L960 99L960 73L960 0L960 0L900 0L900 0L840 0L840 0L780 0L780 0L720 0L720 0L660 0L660 0L600 0L600 0L540 0L540 0L480 0L480 0L420 0L420 0L360 0L360 0L300 0L300 0L240 0L240 0L180 0L180 0L120 0L120 0L60 0L60 0L0 0Z" fill="#ffffff"></path><path d="M0 103L60 103L60 87L120 87L120 95L180 95L180 127L240 127L240 137L300 137L300 93L360 93L360 75L420 75L420 71L480 71L480 105L540 105L540 69L600 69L600 85L660 85L660 105L720 105L720 71L780 71L780 91L840 91L840 109L900 109L900 131L960 131L960 103L960 71L960 97L900 97L900 81L840 81L840 61L780 61L780 23L720 23L720 63L660 63L660 61L600 61L600 37L540 37L540 63L480 63L480 49L420 49L420 53L360 53L360 75L300 75L300 109L240 109L240 79L180 79L180 45L120 45L120 55L60 55L60 69L0 69Z" fill="#adb0b1"></path><path d="M0 159L60 159L60 115L120 115L120 149L180 149L180 151L240 151L240 161L300 161L300 135L360 135L360 103L420 103L420 115L480 115L480 149L540 149L540 125L600 125L600 143L660 143L660 149L720 149L720 123L780 123L780 129L840 129L840 131L900 131L900 153L960 153L960 133L960 101L960 129L900 129L900 107L840 107L840 89L780 89L780 69L720 69L720 103L660 103L660 83L600 83L600 67L540 67L540 103L480 103L480 69L420 69L420 73L360 73L360 91L300 91L300 135L240 135L240 125L180 125L180 93L120 93L120 85L60 85L60 101L0 101Z" fill="#626669"></path><path d="M0 201L60 201L60 201L120 201L120 201L180 201L180 201L240 201L240 201L300 201L300 201L360 201L360 201L420 201L420 201L480 201L480 201L540 201L540 201L600 201L600 201L660 201L660 201L720 201L720 201L780 201L780 201L840 201L840 201L900 201L900 201L960 201L960 201L960 131L960 151L900 151L900 129L840 129L840 127L780 127L780 121L720 121L720 147L660 147L660 141L600 141L600 123L540 123L540 147L480 147L480 113L420 113L420 101L360 101L360 133L300 133L300 159L240 159L240 149L180 149L180 147L120 147L120 113L60 113L60 157L0 157Z" fill="#212529"></path></svg>