<svg id="visual" viewBox="0 0 900 150" width="900" height="150" xmlns="http://www.w3.org/2000/svg" xmlns:xlink="http://www.w3.org/1999/xlink" version="1.1"><rect width="900" height="150" fill="#FCAF3C"></rect><g><g transform="translate(284 114)"><path d="M0 -41.5L35.9 -20.7L35.9 20.7L0 41.5L-35.9 20.7L-35.9 -20.7Z" stroke="#FFFFFF" fill="none" stroke-width="2"></path></g><g transform="translate(606 59)"><path d="M0 -33L28.6 -16.5L28.6 16.5L0 33L-28.6 16.5L-28.6 -16.5Z" stroke="#FFFFFF" fill="none" stroke-width="2"></path></g><g transform="translate(716 84)"><path d="M0 -40L34.6 -20L34.6 20L0 40L-34.6 20L-34.6 -20Z" stroke="#FFFFFF" fill="none" stroke-width="2"></path></g><g transform="translate(67 118)"><path d="M0 -34L29.4 -17L29.4 17L0 34L-29.4 17L-29.4 -17Z" stroke="#FFFFFF" fill="none" stroke-width="2"></path></g><g transform="translate(147 17)"><path d="M0 -23L19.9 -11.5L19.9 11.5L0 23L-19.9 11.5L-19.9 -11.5Z" stroke="#FFFFFF" fill="none" stroke-width="2"></path></g><g transform="translate(866 68)"><path d="M0 -29L25.1 -14.5L25.1 14.5L0 29L-25.1 14.5L-25.1 -14.5Z" stroke="#FFFFFF" fill="none" stroke-width="2"></path></g><g transform="translate(551 127)"><path d="M0 -29L25.1 -14.5L25.1 14.5L0 29L-25.1 14.5L-25.1 -14.5Z" stroke="#FFFFFF" fill="none" stroke-width="2"></path></g><g transform="translate(787 31)"><path d="M0 -31L26.8 -15.5L26.8 15.5L0 31L-26.8 15.5L-26.8 -15.5Z" stroke="#FFFFFF" fill="none" stroke-width="2"></path></g></g></svg>