<svg xmlns="http://www.w3.org/2000/svg" viewBox="0 0 512 209.434">
<path fill="#EC1C24" d="M506.581,86.116l-0.074-24.411l-131.196,0.074v-19.21l-19.366,0.076l-0.227,38.046
	c0,0-2.711-13.111-11.755-17.028c0,0-3.998-1.66-11.229-1.959H41.081c0,0-8.52-14.087-0.604-26.218c0,0,8.969-17.101,37.306-13.258
	c0,0,14.621,3.317,22.607,7.911c0,0,24.946,13.108,32.179,20.717l4.221,3.539l8.968-11.75c0,0-16.881-17.404-31.951-25.464
	c0,0-22.687-15.218-48.235-12.882c0,0-22.232,2.11-33.836,12.808c0,0-9.948,7.078-12.962,18.458c0,0-1.206,5.272-0.906,10.923
	c0,0,0.753,7.531,1.81,10.923l1.73,4.217L5.057,61.853L5.13,86.116h16.355v119.189h19.671V86.19h75.813v8.362
	c0,0-12.584,3.543-17.786,5.652c0,0-19.445,8.812-30.52,16.122c0,0-18.689,12.43-20.348,13.486l-1.357,0.906l3.089,14.691
	c0,0,22.008,1.128,43.109,20.041c0,0,17.71,15.297,21.932,22.905c0,0,2.107,3.466,2.261,4.968c0,0,0.451,4.561,0.373,5.54
	c-0.073,0.977,0.041,6.516,0.041,6.516h18.688v-94.35c0,0,12.121,0.852,18.25,9.493c0,0,5.325,5.826,6.634,11.097
	c0,0,0.954,3.467,1.307,4.773l0.249,2.008c0,0-6.98-1.807-12.962,1.56c0,0-6.584,3.615-7.487,12.455c0,0-0.197,8.188,6.384,13.31
	c0,0,11.602,8.991,23.762-1.909c0,0,7.887-7.131,8.442-18.282c0,0,0.398-8.286-1.563-15.367c0,0-1.705-6.781-6.176-13.713
	c0,0-4.675-7.638-14.269-14.72c0,0-6.483-4.522-12.712-6.781c0,0-6.076-1.703-7.534-1.905c-1.457-0.205-2.312-0.252-2.312-0.252
	v-6.734l171.07,0.205v73.634c0,0-1.153-6.433-2.913-9.544c0,0-4.319-6.735-6.03-8.791l-3.671-4.467c0,0-0.294-10.599-3.715-17.282
	c0,0-3.87-7.784-9.397-13.209c0,0-8.185-8.236-18.135-11.249c0,0-17.987-6.032-30.899,2.358c0,0-10.149,6.781-9.295,18.287
	c0,0,0.759,9.036,7.085,14.259c0,0,8.037,8.541,22.509,3.067c0,0,7.487-3.218,9.297-11.252l0.652-6.528
	c0,0,7.536,1.406,11.001,9.946c0,0,2.61,7.03,1.859,12.554c-0.752,5.525-0.855,6.281-2.814,9.492c0,0-5.623,11.4-16.125,13.559
	c0,0-7.64,2.198-14.233,0.354c0,0-9.986-2.183-14.735-6.665c0,0-8.588-6.784-12.472-14.544c0,0-3.62-6.327-5.613-14.391
	c0,0-3.014-12.806-3.014-19.473l-0.451-10.473l0.076-0.453h-18.731c0,0,0.076,12.354,1.131,19.4c0,0,2.185,14.013,3.733,18.27
	c0,0,2.977,9.755,6.442,15.598c0,0,5.388,9.568,10.362,14.086c0,0,4.638,5.159,12.32,9.794c0,0,12.55,8.325,28.864,7.76
	c0,0,11.117-0.036,21.443-6.367c0,0,8.405-4.519,11.721-8.359l3.124-3.58l0.906-1.131c0,0,7.236,7.122,11.529,14.882
	c0,0,3.391,6.668,5.199,11.98c0,0,2.639,8.962,2.754,11.789l0.302,5.76l19.518,0.039V86.266c0,0,13.304-0.906,18.917,4.406
	c0,0,7.725,5.575,9.153,14.014l0.602,2.336l-0.033,98.356h19.555l-0.076-119.339L506.581,86.116z M117.825,163.965l-1.709-2.005
	c-0.703-1.207-10.451-10.248-10.451-10.248c-8.943-8.738-29.441-18.184-29.441-18.184l6.632-4.418l13.463-7.436
	c5.629-3.714,21.609-8.64,21.609-8.64L117.825,163.965z"/>
<path fill-rule="evenodd" clip-rule="evenodd" fill="#231F20" d="M489.97,144.804c-4.848-0.748-2.853-8.193,1.556-5.993
	C494.668,140.387,493.532,144.804,489.97,144.804 M498.202,135.153l-0.04-12.3c-3.517,1.405-6.622,3.075-9.883,4.891
	C491.796,129.948,495.69,131.633,498.202,135.153z M413.418,135.108l-0.05-12.255c-3.368,1.348-6.997,2.594-9.782,4.985
	C407.214,129.451,411.077,131.828,413.418,135.108z M390.457,145.31v-28.405h-5.909v-3.475h5.032
	c-0.388-1.167-0.744-2.269-0.866-3.528v-1.368c0.773-5.397,6.271-8.55,11.305-9.06h2.284c6.759,0.752,11.932,5.532,16.511,10.112
	c-0.614,0.975-1.419,2.107-2.24,2.926c-4.241-3.635-8.833-7.545-14.41-8.782h-1.145c-5.083,0.725-9.527,3.773-6.583,9.65
	l48.681,0.05c3.388,0.144,5.705,0.677,7.643,3.377c3.762-3.224,8.417-4.566,12.802-1.276l0.055-2.101h6.769
	c1.712,0.311,3.255,1.002,4.444,2.194l0.037-2.194h32.077v3.475h-3.896v28.405h-4.754l-0.046-2.428
	c-1.124-5.6-11.346-11.646-16.518-12.164c-0.281-1.203-0.602-2.442-0.73-3.657c5.647-3.534,10.783-6.671,17.248-8.832l0.046-1.323
	h-18.847v28.405h-4.579l-0.037-22.777c-1.218-3.219-3.121-4.963-6.459-5.628l-0.131,28.405h-4.622l-0.055-23.605
	c-1.625-3.686-6.451-5.169-9.275-1.872c2.268,1.421,4.257,3.006,5.76,5.257c1.858,2.789-0.398,5.892-3.208,6.406h-1.275
	c-2.302-0.42-3.059-1.978-4.391-3.526c-0.727,1.817-2.428,3.168-4.346,3.526h-1.195c-2.716-0.456-4.97-2.897-3.979-5.858
	c0.494-1.484,1.75-2.577,2.835-3.656c0.845-0.848,1.959-1.408,2.886-2.106c-1.383-1.184-3.065-2.18-4.948-2.06
	c-2.975,0.2-6.336,7.976-6.675,10.022l-0.043,0.269c-0.067,0.428-0.105,0.852-0.142,1.284v2.191
	c0.24,3.377,1.285,8.582,4.623,10.247c-0.387-5.184,7.001-5.917,7.913-0.912v1.37c-0.526,2.625-2.424,3.91-4.984,4.299h-1.877
	c-7.014-0.776-9.856-8.146-10.298-14.313l-0.041-1.192v-1.23c0.257-5.183,2.163-9.304,5.717-12.857l-18.531-0.089l0.231,0.961
	c1.835,0.279,3.472,0.952,4.989,1.968c1.083,0.718,2.366,1.77,3.112,2.878c2.757,4.143,4.412,12.454-2.154,13.77h-1.238
	c-5.174-1.034-4.291-8.115,1.378-7.549c-0.3-3.561-2.917-5.725-6.087-6.59l-0.231,22.967h-4.578l-0.046-1.234
	c-0.389-5.88-10.728-13.079-16.053-13.359c-0.444-1.157-0.845-2.41-1.146-3.611c5.05-3.608,10.778-7.396,17.021-8.79l0.224-1.411
	H395.07v28.405H390.457z"/>
<path fill-rule="evenodd" clip-rule="evenodd" fill="#231F20" d="M420.858,177.339l0.041-17.889l-36.351-0.003v-3.836h45.097
	c1.83,0.329,3.242,1.075,4.399,2.425l0.053-2.425h58.852c1.764,0.313,2.994,1.141,4.101,2.427l0.05-2.427h9.813v3.839h-4.764v31.388
	H497.1l-0.05-25.169c-1.38-3.672-3.936-6.218-8.037-6.218v31.388h-5.119l-0.042-20.224c-1.384-2.758-5.613-3.283-6.325,0.259
	l-0.05,2.374h-4.451c-0.208-3.522-1.899-5.364-5.201-6.068h-1.316c-4.41,1.321-5.268,6.573-2.071,9.764
	c0.228-2.352,1.22-4.089,3.793-4.555h1.263c5.261,0.954,5.655,8.224,0.606,9.909c-0.665,0.222-1.318,0.368-2.018,0.454h-1.369
	c-5.032-0.719-8.832-4.165-9.408-9.299v-2.176c0.977-8.74,10.346-10.921,17.145-6.672c2.06-2.891,6.682-2.572,9.298-0.6l0.147-4.554
	h-22.797c-6.442,1.378-12.635,7.45-13.198,14.255v1.965c0.355,4.203,1.78,8.021,5.556,9.908c-0.411-4.677,5.553-6.677,8.146-2.777
	c2.65,3.961-1.563,7.681-5.201,8.086h-1.318c-7.346-0.614-11.469-7.819-11.985-14.551l-0.059-1.469v-0.711l0.059-1.517
	c0.528-5.355,3.32-10.318,7.843-13.143l-11.735-0.046v31.388h-5.109l-0.053-25.222c-1.453-3.646-3.899-6.166-8.038-6.166v31.388
	h-5.107c-0.632-5.019-2.35-8.126-5.201-11.93c-2.242,2.884-5.882,4.741-9.562,5.154h-1.667
	c-10.646-0.815-15.136-10.859-15.719-20.368l-0.05-1.26v-1.213h5.098l0.055,1.964c0.408,7.4,2.872,14.28,10.566,15.925h1.718
	c2.852-0.657,5.214-2.332,6.071-5.304c0.799-2.823-0.362-6.281-3.195-7.133c-0.489,6.92-9.581,6.712-10.714,0.507v-1.312
	c0.368-1.813,1.371-3.238,2.886-4.247c0.56-0.379,1.206-0.615,1.863-0.759c6.824-1.513,13.998,3.723,14.514,10.67
	c0.069,0.839,0.046,0.826,0.403,1.362c0.41,0.61,0.857,1.203,1.266,1.822C419.796,175.56,420.336,176.521,420.858,177.339"/>
<rect x="5.057" y="4.055" fill="none" width="501.887" height="201.323"/>
</svg>
